<?xml version="1.0" encoding="utf-8"?>
<svg version="1.1" id="Capa_1" xmlns="http://www.w3.org/2000/svg" xmlns:xlink="http://www.w3.org/1999/xlink" x="0px" y="0px"
	viewBox="0 0 228.8 35.8" style="enable-background:new 0 0 228.8 35.8;" xml:space="preserve">
<title>larioja</title>
<path d="M0,0.7h9.5v26.1h16.7v8.4H0V0.7z"/>
<path d="M49.6,21.5l-3.8-9.8l-3.9,9.8H49.6z M41.2,0.4h9.2L65,35.1H54.9l-2.5-6.2H39.1l-2.4,6.2h-10L41.2,0.4z"/>
<path d="M95.7,17.2c3.2,0,5.1-1.6,5.1-4.1V13c0-2.7-2-4.1-5.2-4.1h-6.3v8.3H95.7z M79.8,0.7h16.3c5.3,0,8.9,1.4,11.2,3.7
	c2.1,2.1,3.2,5,3.1,8v0.1c0.2,4.7-2.7,9-7.1,10.6l8.2,12h-11l-7-10.4h-4.2v10.4h-9.5V0.7z"/>
<path d="M114.4,0.7h9.5v34.4h-9.5V0.7z"/>
<path d="M155.4,18v-0.1c0-5-3.5-9.3-8.8-9.3s-8.8,4.2-8.8,9.2v0.1c0,5,3.6,9.3,8.9,9.3S155.4,22.9,155.4,18z M128.1,18v-0.1
	c0-9.9,8-17.9,18.6-17.9s18.5,7.9,18.5,17.8v0.1c0,9.9-8,17.9-18.6,17.9S128.1,27.8,128.1,18z"/>
<path d="M164.7,29.9l6.1-5.8c1.7,2,3.3,3.2,5.4,3.2c2.4,0,3.9-1.6,3.9-4.8V0.7h9.5v21.8c0,4.3-1.1,7.4-3.4,9.7
	c-2.5,2.4-5.9,3.7-9.4,3.5C170.8,35.7,167.2,33.2,164.7,29.9z"/>
<path d="M213.3,21.5l-3.8-9.8l-3.9,9.8H213.3z M205,0.4h9.2l14.6,34.7h-10.2l-2.4-6.2h-13.3l-2.4,6.2h-10L205,0.4z"/>
<path d="M0,0.7h9.5v26.1h16.7v8.4H0V0.7z"/>
<path d="M49.6,21.5l-3.8-9.8l-3.9,9.8H49.6z M41.2,0.4h9.2L65,35.1H54.9l-2.5-6.2H39.1l-2.4,6.2h-10L41.2,0.4z"/>
<path d="M95.7,17.2c3.2,0,5.1-1.6,5.1-4.1V13c0-2.7-2-4.1-5.2-4.1h-6.3v8.3H95.7z M79.8,0.7h16.3c5.3,0,8.9,1.4,11.2,3.7
	c2.1,2.1,3.2,5,3.1,8v0.1c0.2,4.7-2.7,9-7.1,10.6l8.2,12h-11l-7-10.4h-4.2v10.4h-9.5V0.7z"/>
<path d="M114.4,0.7h9.5v34.4h-9.5V0.7z"/>
<path d="M155.4,18v-0.1c0-5-3.5-9.3-8.8-9.3s-8.8,4.2-8.8,9.2v0.1c0,5,3.6,9.3,8.9,9.3S155.4,22.9,155.4,18z M128.1,18v-0.1
	c0-9.9,8-17.9,18.6-17.9s18.5,7.9,18.5,17.8v0.1c0,9.9-8,17.9-18.6,17.9S128.1,27.8,128.1,18z"/>
<path d="M164.7,29.9l6.1-5.8c1.7,2,3.3,3.2,5.4,3.2c2.4,0,3.9-1.6,3.9-4.8V0.7h9.5v21.8c0,4.3-1.1,7.4-3.4,9.7
	c-2.5,2.4-5.9,3.7-9.4,3.5C170.8,35.7,167.2,33.2,164.7,29.9z"/>
<path d="M213.3,21.5l-3.8-9.8l-3.9,9.8H213.3z M205,0.4h9.2l14.6,34.7h-10.2l-2.4-6.2h-13.3l-2.4,6.2h-10L205,0.4z"/>
</svg>
