<svg id="Layer_1" data-name="Layer 1" xmlns="http://www.w3.org/2000/svg" viewBox="0 0 34.55 19.51"><defs><style>.cls-1{fill:#fff;}</style></defs><title>larioja-mini</title><path class="cls-1" d="MNaN,NaN,NaN,NaN,NaN,NaN,NaN,NaN,NaN,NaNZ" transform="translate(-0.45 -0.12)"/><path d="M.45.12H5.86V14.89H15.3v4.73H.45Z" transform="translate(-0.45 -0.12)"/><path d="M26.06,9.49c1.81,0,2.9-.89,2.9-2.3V7.11C29,5.55,27.82,4.77,26,4.77H22.47V9.49Zm-9-9.36h9.22c3,0,5,.78,6.35,2.09a6.09,6.09,0,0,1,1.73,4.54v.06a6.18,6.18,0,0,1-4,6L35,19.63H28.79l-4-5.9h-2.4v5.91H17.06Z" transform="translate(-0.45 -0.12)"/></svg>