<svg id="Capa_1" data-name="Capa 1" xmlns="http://www.w3.org/2000/svg" viewBox="0 0 406.82 62.42"><defs><style>.cls-1{fill:#d30026;}</style></defs><title>ideal-on</title><path class="cls-1" d="M362.44,89.32v-.95c0-11,6.85-17,16.29-17,10.46,0,16.29,6,16.29,16.67v.89c0,11.09-6.84,17-16.35,17C368.21,105.93,362.44,99.84,362.44,89.32Zm23.39.25V88.12c0-8.31-3.1-10.27-7.22-10.27-4.44,0-7,2.91-7,10v1.46c0,8.17,3.17,10.27,7.23,10.27C383.23,99.53,385.83,96.61,385.83,89.57Z" transform="translate(-55.88 -71.38)"/><path class="cls-1" d="M399.88,72.33h8.62v2.92h.32a17.74,17.74,0,0,1,10.77-3.55c6.34,0,9.77,2.66,9.77,9.19v24.72h-8.94V83.17c0-3.1-1.14-4.31-5.07-4.31a17.93,17.93,0,0,0-6.53,1.52v25.23h-8.94Z" transform="translate(-55.88 -71.38)"/><path d="M444.7,92.21H434.5v-7.1h10.2V74.46h7.8V85.11h10.2v7.1H452.5v10.64h-7.8Z" transform="translate(-55.88 -71.38)"/><path d="M55.88,85.09H69.11v36.16H92.24v11.6H55.88Z" transform="translate(-55.88 -71.38)"/><path d="M114.48,84.75h12.76l20.33,48.1H133.38l-3.41-8.6H111.48l-3.41,8.6H94.22Zm11.6,29.2-5.32-13.51L115.37,114Z" transform="translate(-55.88 -71.38)"/><path d="M164.28,85.09h22.59c7.3,0,12.34,1.91,15.55,5.12,2.8,2.8,4.23,6.41,4.23,11.12v.14c0,7.36-3.89,12.21-9.82,14.73l11.39,16.65H193l-9.62-14.47h-5.87v14.47H164.28Zm22,22.92c4.44,0,7.1-2.18,7.1-5.66v-.13c0-3.82-2.8-5.73-7.17-5.73h-8.73V108Z" transform="translate(-55.88 -71.38)"/><path d="M213.64,85.09h13.24v47.76H213.64Z" transform="translate(-55.88 -71.38)"/><path d="M232.68,109.11V109c0-13.71,11-24.83,25.79-24.83s25.65,11,25.65,24.69V109c0,13.71-11.05,24.83-25.79,24.83S232.68,122.82,232.68,109.11Zm37.86,0V109c0-7-4.91-12.89-12.21-12.89s-12.14,5.86-12.14,12.75V109c0,6.89,5,12.89,12.28,12.89S270.54,116,270.54,109.11Z" transform="translate(-55.88 -71.38)"/><path d="M282.21,125.62l8.53-8.05c2.32,2.79,4.5,4.43,7.5,4.43,3.28,0,5.39-2.25,5.39-6.69V85.09H316.8v30.29c0,6-1.5,10.24-4.71,13.44s-7.64,4.85-13.1,4.85C290.67,133.67,285.62,130.19,282.21,125.62Z" transform="translate(-55.88 -71.38)"/><path d="M336.72,84.75h12.76l20.33,48.1H355.62l-3.41-8.6H333.72l-3.41,8.6H316.46Zm11.6,29.2L343,100.44,337.61,114Z" transform="translate(-55.88 -71.38)"/></svg>