<?xml version="1.0" encoding="utf-8"?>
<!-- Generator: Adobe Illustrator 22.1.0, SVG Export Plug-In . SVG Version: 6.00 Build 0)  -->
<svg version="1.1" id="DV" xmlns="http://www.w3.org/2000/svg" xmlns:xlink="http://www.w3.org/1999/xlink" x="0px" y="0px"
	 width="216.4994965px" height="61.3334999px" viewBox="0 0 216.4994965 61.3334999"
	 style="enable-background:new 0 0 216.4994965 61.3334999;" xml:space="preserve">
<style type="text/css">
	.st0{fill:#00A8F3;}
	.st1{fill:#8AC149;}
	.st2{fill:#1D1E1C;}
	.st3{fill:#BF1818;}
	.st4{fill:#FFFFFF;}
</style>
<g>
	<g>
		<path class="st0" d="M20.7307377,43.1861839c3.9787312,0,7.4743252-1.0299759,10.4867821-3.0888786
			c3.0114079-2.0599518,5.376688-5.0656433,7.0937443-9.0203381c1.7192688-3.9553967,2.5784378-8.4632339,2.5784378-13.5237427
			c0-4.8081484-1.2601662-8.5624151-3.7862206-11.2661362c-2.521389-2.7014465-6.0545502-4.0533075-10.593771-4.0533075
			c-3.9263458,0-7.4344254,1.0596104-10.5278292,3.1822612c-3.0911179,2.1226397-5.5316401,5.1846948-7.3113356,9.1838779
			c-1.7831192,4.0003157-2.6729665,8.4227476-2.6729665,13.2662477c0,4.7887821,1.2840743,8.5395374,3.8533444,11.2501659
			C12.4190722,41.8303452,16.0468216,43.1861839,20.7307377,43.1861839z M14.4494247,17.6750298
			c1.1484909-3.092144,2.736763-5.5099277,4.7614326-7.2514591c2.0257683-1.7415323,4.2862778-2.6125779,6.7826977-2.6125779
			c2.6067905,0,4.6212406,0.8625054,6.0511646,2.5858016c1.4287605,1.7232733,2.1431389,4.1262388,2.1431389,7.2110338
			c0,3.7372208-0.5560532,7.1415768-1.6680527,10.2173882c-1.1119938,3.0751095-2.6695576,5.478075-4.6656914,7.2098293
			c-1.9996319,1.7330399-4.2463741,2.5989761-6.7451286,2.5989761c-2.6398087,0-4.697567-0.8522873-6.1707659-2.5579071
			c-1.4743547-1.7044525-2.2103882-4.1267872-2.2103882-7.2657166
			C12.7278318,24.1466808,13.3009453,20.7684574,14.4494247,17.6750298z"/>
		<path class="st0" d="M48.794548,9.9330721l-0.5707588,2.5037584l-5.2650337,2.0680017l-0.5685387,2.8836527h4.857151
			L42.562191,41.5807838c-0.7780838,3.7200699-2.3767166,5.579464-4.8012657,5.579464
			c-0.9046707,0-1.9368629-0.1822395-3.0944786-0.5457878v5.1693611c1.0663757,0.4181519,2.4131165,0.6266441,4.0424347,0.6266441
			c2.6592903,0,4.810482-0.8078346,6.4580002-2.4211655c1.6440163-1.614502,2.8300972-4.135891,3.5536957-7.5653305
			L53.568512,17.388485h6.211937l1.0048943-4.8433838h-6.2141571l0.4899025-2.3391581
			c0.3965683-1.7779799,0.9708252-3.0563612,1.7227707-3.8362517c0.7509003-0.7804737,1.7489052-1.1701331,2.9965897-1.1701331
			c1.1222649,0,2.3516312,0.2535038,3.6914864,0.7610946l1.6555672-4.7887697
			C63.3899155,0.392554,61.4815216,0.00175,59.4010353,0.00175c-3.0023079,0-5.3220863,0.757681-6.9593391,2.2719088
			C50.8056145,3.7884514,49.5887299,6.3417721,48.794548,9.9330721z"/>
		<path class="st0" d="M92.4814835,29.0362663c0.7052765-3.3201218,1.9528503-6.0043812,3.7428207-8.0547657
			c1.789978-2.0502682,3.827179-3.0751114,6.1058884-3.0751114c0.8681488,0,1.7921906,0.1276398,2.7675629,0.3811665
			l1.3831406-5.9589968c-0.831749-0.2181759-1.8081741-0.3269129-2.9304352-0.3269129
			c-1.680542,0-3.2746201,0.4762526-4.7751312,1.4293423c-1.5016785,0.9525061-3.0021896,2.5156708-4.5038681,4.6935768h-0.2438431
			l0.5697021-5.5788803H89.604599l-6.4032822,30.0947113h6.4032822L92.4814835,29.0362663z"/>
		<path class="st0" d="M109.5047913,43.430027c0.3246918-1.5951309,0.551506-3.2746201,0.6790237-5.0337906h0.2712631
			c1.5904617,3.1936493,4.0230637,4.7887802,7.2975693,4.7887802c2.6228867,0,5.0246887-0.8977852,7.2031784-2.6923103
			c2.1795349-1.7979088,3.9023132-4.3034286,5.1692505-7.5243797c1.2658844-3.2204819,1.8982391-6.6813068,1.8982391-10.3814278
			c0-3.3201199-0.7315369-5.9132595-2.1966858-7.7824545c-1.4664459-1.8680267-3.4898834-2.8027983-6.0785904-2.8027983
			c-3.3815994,0-6.4932327,1.8862276-9.33255,5.6597328h-0.2438431l0.5697098-5.115694h-4.9938889l-9.1707306,39.8659477h6.3234787
			L109.5047913,43.430027z M113.4527206,25.1169205c0.913765-2.3756638,2.0929642-4.2852268,3.5410919-5.7288036
			c1.4459076-1.4407749,2.9009247-2.1619225,4.3672485-2.1619225c2.8039627,0,4.2054214,1.823576,4.2054214,5.468977
			c0,2.5954723-0.3896866,5.0844269-1.1667175,7.4702415s-1.8354721,4.2897758-3.173111,5.7139854
			c-1.3410187,1.4230423-2.777832,2.1362534-4.3136902,2.1362534c-1.5382004,0-2.7298813-0.4853516-3.5685196-1.4572258
			c-0.8420181-0.9684906-1.2623825-2.3243294-1.2623825-4.066349
			C112.0820618,29.9517879,112.5389481,27.4942188,113.4527206,25.1169205z"/>
		<polygon class="st0" points="138.4812012,42.6403961 147.4617615,0.3014044 141.0858917,0.3014044 132.1326294,42.6403961 		"/>
		<path class="st0" d="M181.7521973,29.8794518c0.5082245-2.4662037,1.2670593-4.6753769,2.2788239-6.6265907
			c1.0151672-1.9488811,2.1522522-3.4420433,3.4203491-4.4754028c1.2647247-1.0345249,2.5498505-1.5506802,3.8510895-1.5506802
			c2.3356476,0,3.5001526,1.1888828,3.5001526,3.5633812c0,0.7450638-0.1618347,1.9317284-0.4876862,3.5650139l-3.8533173,18.285223
			h6.4032898l3.7177277-17.7679024c0.4158173-2.030901,0.625473-3.6732845,0.625473-4.9255199
			c0-2.5395889-0.6665344-4.4982691-1.9950714-5.8768597c-1.3295898-1.3780069-3.2073059-2.0680017-5.6306915-2.0680017
			c-1.8640594,0-3.59021,0.4848871-5.1830139,1.4555931c-1.5905762,0.9707069-3.1367035,2.5254717-4.638382,4.6656923h-0.2426758
			l0.5685272-5.5771294h-4.9915466l-6.4044495,30.0941277h6.4044495L181.7521973,29.8794518z"/>
		<path class="st0" d="M153.9664154,43.1861839c3.453476,0,6.6094513-1.7785416,9.4681244-5.3345718h0.1606598l-0.5685425,4.788784
			h4.9380035l6.4032898-30.0941277h-4.8832855l-1.6840363,4.2987614h-0.269989
			c-0.7052765-1.5779829-1.6907959-2.7794657-2.9590149-3.6043329c-1.2646027-0.8260345-2.7743378-1.2385845-4.5301208-1.2385845
			c-2.6399231,0-5.0644684,0.9297552-7.2702637,2.7892656c-2.2081299,1.8588104-3.9400024,4.3848648-5.1966705,7.5773468
			c-1.2578278,3.1936474-1.8856354,6.6220398-1.8856354,10.2862244c0,3.3383217,0.740509,5.9270287,2.2251587,7.7693863
			C149.3975677,42.2643623,151.4142303,43.1861839,153.9664154,43.1861839z M153.3670807,25.0223007
			c0.8147125-2.4040165,1.9004669-4.3034286,3.2563019-5.7008018c1.3570099-1.3969078,2.8029175-2.0947208,4.3409882-2.0947208
			c1.3730011,0,2.4873199,0.4841862,3.3372803,1.4554768c0.8499451,0.9708233,1.2760315,2.2537441,1.2760315,3.8505096
			c0,2.793232-0.4624786,5.3693371-1.3854675,7.7283192c-0.9217072,2.3562984-2.0975189,4.2396069-3.5274506,5.6444492
			c-1.4287567,1.4071732-2.8848267,2.1101189-4.3672485,2.1101189c-1.3022766,0-2.3196564-0.4579353-3.0534058-1.375206
			c-0.7303619-0.9149361-1.0973053-2.2980766-1.0973053-4.1483688
			C152.1468048,29.9158516,152.5547028,27.4252663,153.3670807,25.0223007z"/>
		<path class="st0" d="M61.5760231,40.44487l4.0675163-4.8310165c-0.6106567-1.0367432-0.9193649-2.3288803-0.9193649-3.8841095
			v-0.7883492l0.0535507-0.8443508h1.1677628c5.5704803,0,9.8613052-0.9297562,12.873764-2.789732
			c3.0114059-1.8593941,4.5188065-4.4390011,4.5188065-7.7413864c0-2.4114838-0.8112183-4.2761278-2.4292221-5.5920649
			c-1.6212616-1.3143044-3.8851547-1.9717484-6.7973938-1.9717484c-2.9669571,0-5.6490021,0.8431845-8.0450821,2.5300207
			c-2.3961983,1.6874199-4.2954941,4.0777855-5.6957855,7.1700459c-1.4025078,3.0934277-2.1032372,6.435133-2.1032372,10.027565
			c0,3.609581,0.9981232,6.420433,2.9964752,8.4347649C61.364151,40.2636795,61.4724197,40.3502502,61.5760231,40.44487z
			 M68.8361435,19.2394772c1.5267639-1.5593128,3.159462-2.3397293,4.8947144-2.3397293
			c1.1416321,0,1.9996338,0.2580776,2.5783234,0.7752819c0.5777588,0.5173225,0.8682709,1.2374172,0.8682709,2.1636734
			c0,1.7774906-0.9582214,3.1509457-2.8768845,4.1222363c-1.9164429,0.9708233-4.575737,1.4555931-7.9756622,1.4555931h-0.788353
			C66.2064819,22.8586273,67.307045,20.7998428,68.8361435,19.2394772z"/>
		<path class="st0" d="M71.800766,43.0881805c0.9456177-0.0831871,1.8423538-0.2142105,2.6752777-0.4056664
			c0.0455017-0.0102692,0.0911179-0.0261345,0.1343994-0.0352364c1.4196625-0.3396301,2.9715118-0.8921852,4.6565933-1.664669
			v-2.0166664v-3.0740585c-0.7713165,0.367981-1.4914093,0.679142-2.1716003,0.9513397
			c-0.8671036,0.3463974-1.666893,0.6255913-2.3858185,0.8181c-0.2997284,0.0809669-0.6027222,0.1503868-0.9012909,0.2119904
			c-0.8396835,0.1719742-1.6817017,0.2642632-2.5282669,0.2905121c-0.6961823,0.4648209-1.1837463,1.2282028-1.2453537,2.1283226
			C69.9469681,41.5420494,70.6978683,42.6472778,71.800766,43.0881805z"/>
		<path class="st1" d="M74.6013489,42.6506615c-0.5355225,0.4442863-1.2339172,0.6961784-1.9802704,0.6448441
			c-0.2973938-0.0205345-0.5719223-0.1002197-0.831749-0.2039413c-1.1051102-0.4397354-1.8571777-1.5461311-1.7682724-2.7970848
			c0.0638199-0.9024506,0.551506-1.6658325,1.246521-2.1318207c0.4990005-0.3349648,1.1017227-0.5207024,1.7455215-0.4739189
			c0.2756958,0.0193672,0.537735,0.0899544,0.7837982,0.1845741c0.3019409-0.0626526,0.6027222-0.1321869,0.9024506-0.2131577
			c0.7211456-0.1925087,1.5222168-0.4693718,2.388031-0.8169327l-2.6615067-2.6056252l-7.727272,0.0978851l-1.0732574,1.2749863
			l-4.0709038,4.8354492l-7.4298744,9.0489235l12.5273666,11.5337944l12.5969086-14.6841545v-5.3549881
			C77.5659714,41.7619743,76.0186691,42.3133659,74.6013489,42.6506615z"/>
	</g>
	<g>
		<polygon class="st2" points="117.1431503,49.6383514 120.2684326,49.6383514 120.2684326,58.1780014 125.7316895,58.1780014 
			125.7316895,60.9169846 117.1431503,60.9169846 117.1431503,49.6383514 		"/>
		<path class="st2" d="M133.3848724,56.4552307l-1.2556152-3.1902657l-1.273819,3.1902657H133.3848724L133.3848724,56.4552307z
			 M130.6446075,49.5574951h3.0136261l4.8047638,11.3594894h-3.3543091l-0.8043365-2.0291519h-4.3672333l-0.8055115,2.0291519
			h-3.2700653L130.6446075,49.5574951L130.6446075,49.5574951z"/>
		<path class="st2" d="M148.4996643,55.0515556c1.0471191,0,1.6761017-0.5149879,1.6761017-1.3376389v-0.0318489
			c0-0.9012871-0.6608276-1.3524551-1.6919708-1.3524551h-2.0622864v2.7219429H148.4996643L148.4996643,55.0515556z
			 M143.2938995,49.6383514h5.3345642c1.7249908,0,2.9156342,0.450119,3.6744537,1.20895
			c0.659668,0.6596603,0.9992981,1.5141602,0.9992981,2.6239395v0.0353508c0,1.7386398-0.9183197,2.8826027-2.3209534,3.4796104
			l2.690094,3.9307823h-3.5935974l-2.2707825-3.4157944h-1.3854675v3.4157944h-3.1276093V49.6383514L143.2938995,49.6383514z"/>
		<polygon class="st2" points="154.6226959,49.6383514 157.7491455,49.6383514 157.7491455,60.9169846 154.6226959,60.9169846 
			154.6226959,49.6383514 		"/>
		<path class="st2" d="M168.045639,55.3102188v-0.0319672c0-1.6440201-1.1621704-3.0454788-2.8837738-3.0454788
			c-1.7238159,0-2.8701172,1.3854752-2.8701172,3.0124588v0.03302c0,1.6281471,1.1769867,3.044426,2.9009247,3.044426
			C166.9016724,58.3226776,168.045639,56.9360352,168.045639,55.3102188L168.045639,55.3102188z M159.1038208,55.3102188v-0.0319672
			c0-3.239151,2.6091156-5.8654289,6.0888519-5.8654289c3.4807739,0,6.060257,2.5931435,6.060257,5.8324089v0.03302
			c0,3.2380981-2.6114502,5.8655396-6.0910645,5.8655396C161.6810913,61.1437912,159.1038208,58.5493698,159.1038208,55.3102188
			L159.1038208,55.3102188z"/>
		<path class="st2" d="M171.1059265,59.2101974l2.0166626-1.9026794c0.5481262,0.6608276,1.0607758,1.0481758,1.7706146,1.0481758
			c0.7748108,0,1.2716064-0.5309715,1.2716064-1.5791473v-7.138195h3.111618v7.1541786
			c0,1.4184914-0.3544464,2.4176674-1.1109467,3.1742821c-0.7428436,0.7406273-1.8058319,1.1439629-3.0922546,1.1439629
			C173.1044006,61.110775,171.9125977,60.2903404,171.1059265,59.2101974L171.1059265,59.2101974z"/>
		<path class="st2" d="M187.0274963,56.4552307l-1.2578278-3.1902657l-1.273819,3.1902657H187.0274963L187.0274963,56.4552307z
			 M184.2873535,49.5574951h3.0124664l4.8024292,11.3594894h-3.349762l-0.8066711-2.0291519h-4.3660736l-0.8066711,2.0291519
			h-3.2699432L184.2873535,49.5574951L184.2873535,49.5574951z"/>
		<polygon class="st2" points="117.1431503,49.6383514 120.2684326,49.6383514 120.2684326,58.1780014 125.7316895,58.1780014 
			125.7316895,60.9169846 117.1431503,60.9169846 117.1431503,49.6383514 		"/>
		<path class="st2" d="M133.3848724,56.4552307l-1.2556152-3.1902657l-1.273819,3.1902657H133.3848724L133.3848724,56.4552307z
			 M130.6446075,49.5574951h3.0136261l4.8047638,11.3594894h-3.3543091l-0.8043365-2.0291519h-4.3672333l-0.8055115,2.0291519
			h-3.2700653L130.6446075,49.5574951L130.6446075,49.5574951z"/>
		<path class="st2" d="M148.4996643,55.0515556c1.0471191,0,1.6761017-0.5149879,1.6761017-1.3376389v-0.0318489
			c0-0.9012871-0.6608276-1.3524551-1.6919708-1.3524551h-2.0622864v2.7219429H148.4996643L148.4996643,55.0515556z
			 M143.2938995,49.6383514h5.3345642c1.7249908,0,2.9156342,0.450119,3.6744537,1.20895
			c0.659668,0.6596603,0.9992981,1.5141602,0.9992981,2.6239395v0.0353508c0,1.7386398-0.9183197,2.8826027-2.3209534,3.4796104
			l2.690094,3.9307823h-3.5935974l-2.2707825-3.4157944h-1.3854675v3.4157944h-3.1276093V49.6383514L143.2938995,49.6383514z"/>
		<polygon class="st2" points="154.6226959,49.6383514 157.7491455,49.6383514 157.7491455,60.9169846 154.6226959,60.9169846 
			154.6226959,49.6383514 		"/>
		<path class="st2" d="M168.045639,55.3102188v-0.0319672c0-1.6440201-1.1621704-3.0454788-2.8837738-3.0454788
			c-1.7238159,0-2.8701172,1.3854752-2.8701172,3.0124588v0.03302c0,1.6281471,1.1769867,3.044426,2.9009247,3.044426
			C166.9016724,58.3226776,168.045639,56.9360352,168.045639,55.3102188L168.045639,55.3102188z M159.1038208,55.3102188v-0.0319672
			c0-3.239151,2.6091156-5.8654289,6.0888519-5.8654289c3.4807739,0,6.060257,2.5931435,6.060257,5.8324089v0.03302
			c0,3.2380981-2.6114502,5.8655396-6.0910645,5.8655396C161.6810913,61.1437912,159.1038208,58.5493698,159.1038208,55.3102188
			L159.1038208,55.3102188z"/>
		<path class="st2" d="M171.1059265,59.2101974l2.0166626-1.9026794c0.5481262,0.6608276,1.0607758,1.0481758,1.7706146,1.0481758
			c0.7748108,0,1.2716064-0.5309715,1.2716064-1.5791473v-7.138195h3.111618v7.1541786
			c0,1.4184914-0.3544464,2.4176674-1.1109467,3.1742821c-0.7428436,0.7406273-1.8058319,1.1439629-3.0922546,1.1439629
			C173.1044006,61.110775,171.9125977,60.2903404,171.1059265,59.2101974L171.1059265,59.2101974z"/>
		<path class="st2" d="M187.0274963,56.4552307l-1.2578278-3.1902657l-1.273819,3.1902657H187.0274963L187.0274963,56.4552307z
			 M184.2873535,49.5574951h3.0124664l4.8024292,11.3594894h-3.349762l-0.8066711-2.0291519h-4.3660736l-0.8066711,2.0291519
			h-3.2699432L184.2873535,49.5574951L184.2873535,49.5574951z"/>
		<polygon class="st3" points="194.5997162,55.7876358 194.5997162,61.331749 210.5019226,61.331749 210.5019226,55.7876358 
			194.5997162,55.7876358 		"/>
		<g>
			<path class="st4" d="M199.887619,58.5756187V58.568737c0-0.7975693,0.6094971-1.4230423,1.4378662-1.4230423
				c0.5570984,0,0.9183044,0.2347412,1.1587677,0.5685387l-0.5685425,0.4386864
				c-0.158432-0.1902924-0.3372955-0.3189812-0.598175-0.3189812c-0.3829041,0-0.6517181,0.3280792-0.6517181,0.7246475v0.0101509
				c0,0.40905,0.2688141,0.7291946,0.6517181,0.7291946c0.2848053,0,0.4533844-0.1320724,0.6185913-0.3326302l0.56633,0.4067192
				c-0.2563324,0.3554955-0.6027222,0.6175423-1.2042847,0.6175423
				C200.5154266,59.989563,199.887619,59.3913879,199.887619,58.5756187z"/>
			<path class="st4" d="M202.6255493,58.5756187V58.568737c0-0.7849655,0.6334076-1.4230423,1.4777527-1.4230423
				c0.8408508,0,1.4663391,0.6289749,1.4663391,1.4128914v0.0101509c0,0.7839127-0.6335297,1.420826-1.4743805,1.420826
				C203.2510223,59.989563,202.6255493,59.3607025,202.6255493,58.5756187z M204.7948151,58.5756187V58.568737
				c0-0.3998337-0.2836304-0.7382965-0.6995544-0.7382965c-0.4169922,0-0.6950226,0.3349609-0.6950226,0.7281456v0.0101509
				c0,0.3931808,0.2825775,0.7372475,0.703064,0.7372475C204.5167847,59.3059845,204.7948151,58.9710197,204.7948151,58.5756187z"/>
		</g>
		<g>
			<path class="st4" d="M205.9216309,57.2004128h0.7987366l0.6540527,1.058445l0.6517334-1.058445h0.7986145v2.7344284h-0.7531128
				v-1.5700455l-0.6972351,1.0710411h-0.015976l-0.6938477-1.067543v1.5665474h-0.7429657V57.2004128z"/>
		</g>
		<polygon class="st4" points="195.9909058,57.1616783 195.9909058,60.011261 198.8382721,60.011261 198.8382721,57.1616783 
			195.9909058,57.1616783 		"/>
	</g>
</g>
</svg>
